<?xml version="1.0" encoding="UTF-8"?>
<svg id="Layer_2" data-name="Layer 2" xmlns="http://www.w3.org/2000/svg" viewBox="0 0 25.68 23.76">
  <defs>
    <style>
      .cls-1 {
        stroke-width: 0px;
      }
    </style>
  </defs>
  <g id="Layer_1-2" data-name="Layer 1">
    <g>
      <path class="cls-1" d="m14.57,18.19c-2.23,0-4.47,0-6.7,0-.18,0-.36,0-.53-.04-.16-.04-.32-.1-.46-.19-.34-.21-.57-.53-.75-.88-.2-.39-.32-.8-.41-1.22-.11-.49-.2-.98-.29-1.46-.09-.48-.18-.97-.27-1.45-.09-.49-.19-.98-.28-1.47-.09-.5-.18-1-.27-1.51-.1-.56-.22-1.11-.32-1.67-.09-.5-.18-.99-.27-1.49-.09-.48-.19-.95-.28-1.43-.08-.41-.15-.82-.23-1.23-.04-.22-.08-.44-.12-.65-.03-.16-.04-.16-.2-.16-.59,0-1.18,0-1.76,0-.17,0-.33-.02-.49-.09-.27-.12-.46-.34-.61-.57-.15-.22-.23-.47-.26-.74C.02,1.8,0,1.65,0,1.51-.02.99.38.44,1,.37c.13-.02.27-.03.41-.03.82,0,1.65,0,2.47,0,.22,0,.43.02.64.07.43.11.74.37.92.76.15.32.24.66.28,1.01.04.3.09.61.14.91.04.28.08.56.12.84q.03.23.26.23c2.58,0,5.16,0,7.74,0,.04,0,.07,0,.11,0,.13,0,.15.01.12.13-.08.43-.08.87-.05,1.31.02.39.09.77.19,1.15.09.35.21.68.36,1.01.22.49.49.94.82,1.35.54.67,1.18,1.22,1.93,1.64.62.34,1.28.57,1.97.7.27.05.55.07.83.09.25.01.49,0,.74,0,.58-.03,1.15-.16,1.7-.34.41-.14.8-.33,1.17-.55.03-.02.06-.04.1-.05.01,0,.03,0,.03,0,0,.01.02.03.01.05-.02.06-.04.13-.06.19-.09.26-.17.53-.26.79-.12.35-.26.7-.46,1.02-.25.39-.59.65-1.03.78-.19.06-.39.07-.58.09-.09.01-.17,0-.26,0-4.42,0-8.83,0-13.25,0-.26,0-.26-.04-.21.26.07.45.16.9.24,1.34.04.21.06.41.1.62.02.11.03.11.14.12.05,0,.1,0,.15,0,4.22,0,8.45,0,12.67,0,.2,0,.39.01.59.04.46.06.81.37.84.91.02.31-.02.62-.17.9-.13.25-.33.4-.6.45-.16.03-.32.05-.48.05-2.18,0-4.35,0-6.53,0-.09,0-.17,0-.26,0Z"/>
      <path class="cls-1" d="m25.68,5.14c0,.06,0,.12,0,.19,0,.86-.25,1.65-.68,2.39-.25.43-.55.82-.91,1.16-.37.34-.77.63-1.22.86-.38.19-.77.33-1.18.42-.33.07-.67.12-1.01.13-.61.01-1.21-.08-1.78-.28-.59-.2-1.14-.5-1.62-.91-.76-.63-1.29-1.41-1.6-2.34-.16-.46-.24-.94-.25-1.43-.02-.63.07-1.24.27-1.83.22-.66.57-1.25,1.04-1.78.48-.54,1.05-.95,1.7-1.25.42-.19.86-.32,1.32-.4.37-.06.74-.09,1.11-.06.64.05,1.25.19,1.83.46.58.27,1.09.62,1.54,1.08.45.47.8.99,1.06,1.59.19.44.31.9.37,1.37.03.21,0,.42,0,.63,0,0,0,0,0,0Zm-5.76-1.36h0c0,.21,0,.42,0,.63,0,.06-.03.09-.09.09-.04,0-.07,0-.11,0-.32,0-.63,0-.95,0-.1,0-.2,0-.29.03-.31.06-.55.43-.47.73.08.33.32.52.67.53.27,0,.53,0,.8,0,.12,0,.23,0,.35,0,.06,0,.09.03.09.09,0,.04,0,.09,0,.13,0,.35,0,.7,0,1.06,0,.33.24.56.49.62.06.02.14.04.2.03.43-.09.6-.37.59-.71-.01-.35,0-.7,0-1.06,0-.15,0-.16.16-.16.03,0,.06,0,.09,0,.33,0,.67,0,1,0,.2,0,.38-.06.51-.22.16-.19.22-.4.12-.64-.09-.23-.24-.38-.5-.41-.09-.01-.18-.02-.28-.02-.33,0-.66,0-.98,0-.1,0-.12-.02-.12-.12,0-.07,0-.15,0-.22,0-.32,0-.64,0-.96,0-.4-.48-.71-.8-.58-.26.1-.47.27-.47.63,0,.18,0,.36,0,.54Z"/>
      <path class="cls-1" d="m19.46,23.75c-.91-.04-1.61-.43-2.09-1.21-.23-.38-.34-.79-.33-1.23,0-.52.18-.99.48-1.41.2-.28.45-.49.74-.66.29-.16.6-.24.93-.29.45-.06.88.02,1.3.2.44.19.78.49,1.03.89.3.47.42.98.37,1.53-.04.47-.23.89-.53,1.26-.29.36-.66.62-1.11.77-.26.09-.52.15-.8.14Z"/>
      <path class="cls-1" d="m8.78,18.89c.46.01,1.01.21,1.47.61.36.31.6.69.71,1.14.17.71.09,1.38-.33,2-.27.39-.63.67-1.06.86-.33.15-.68.22-1.04.2-.55-.03-1.03-.22-1.45-.57-.27-.22-.49-.49-.64-.8-.2-.42-.27-.86-.21-1.33.05-.45.21-.86.5-1.22.2-.25.44-.45.72-.6.37-.2.77-.3,1.34-.3Z"/>
    </g>
  </g>
</svg>