<?xml version="1.0" encoding="UTF-8"?>
<svg id="Layer_2" data-name="Layer 2" xmlns="http://www.w3.org/2000/svg" viewBox="0 0 95.87 71.71">
  <defs>
    <style>
      .cls-1 {
        fill: #231f20;
      }

      .cls-1, .cls-2 {
        stroke-width: 0px;
      }

      .cls-2 {
        fill: #dddadb;
      }
    </style>
  </defs>
  <g id="Layer_1-2" data-name="Layer 1">
    <circle class="cls-2" cx="48.79" cy="35.86" r="35.86"/>
    <g>
      <path class="cls-1" d="m36.6,65.07c-1.16,0-2.37-.15-3.62-.43-1.26-.29-2.42-.75-3.46-1.36-1.06-.62-1.96-1.45-2.68-2.47-.74-1.05-1.13-2.29-1.18-3.7v-.21c0-.7.09-1.39.28-2.04.17-.6.36-1.22.55-1.84.19-.61.37-1.22.54-1.81.15-.54.23-1.1.23-1.68,0-.42-.11-.89-.33-1.4-.23-.53-.54-1.02-.92-1.46-.38-.44-.81-.8-1.28-1.08-.97-.58-1.94-.5-2.77.15-.52.4-.98.9-1.36,1.48-.39.59-.7,1.23-.91,1.91-.21.68-.32,1.29-.32,1.82s.05,1,.15,1.47c.1.5.22,1.01.35,1.51l.44,1.51c.35,1.04.53,2.05.54,2.99l.06.34c0,1.14-.33,2.12-.98,2.92-.61.75-1.39,1.37-2.3,1.84-.88.45-1.84.79-2.85,1.02-1.01.22-1.95.34-2.81.34-1.3,0-2.66-.21-4.05-.64-1.39-.43-2.67-1.05-3.82-1.86-1.16-.82-2.12-1.83-2.87-3.01C.46,58.16.05,56.8,0,55.31v-.21c0-1.62.47-3.17,1.39-4.6.88-1.36,1.99-2.7,3.3-4,1.3-1.28,2.73-2.53,4.26-3.74,1.5-1.18,2.9-2.36,4.17-3.5,1.24-1.12,2.29-2.26,3.11-3.39.77-1.05,1.15-2.12,1.15-3.17,0-.99-.33-1.83-1.01-2.56-.75-.81-1.69-1.59-2.79-2.3-1.13-.73-2.4-1.47-3.76-2.18-1.41-.74-2.72-1.53-3.89-2.36-1.2-.85-2.23-1.81-3.06-2.86-.88-1.12-1.33-2.46-1.33-3.98,0-1.21.28-2.39.84-3.48.54-1.07,1.27-2.04,2.15-2.9.89-.86,1.91-1.56,3.05-2.06,1.15-.51,2.32-.76,3.48-.76,1.56,0,2.91.44,4.01,1.3,1.04.82,1.95,1.85,2.69,3.07.72,1.18,1.36,2.48,1.91,3.85.53,1.33,1.07,2.57,1.62,3.71.53,1.1,1.1,2.02,1.71,2.75.51.61,1.1.91,1.79.91,1.19,0,2.08-.32,2.73-.98.7-.72,1.29-1.67,1.75-2.8.48-1.19.9-2.48,1.26-3.83.37-1.42.84-2.77,1.38-4.01.57-1.3,1.32-2.39,2.24-3.24.98-.91,2.3-1.37,3.92-1.37,1.07,0,2.06.2,2.94.61.87.4,1.64.96,2.3,1.66.66.7,1.17,1.53,1.52,2.47.35.93.52,1.91.52,2.93,0,1.49-.35,2.79-1.04,3.86-.65,1.01-1.48,1.96-2.47,2.81-.96.83-1.99,1.62-3.08,2.36-1.04.7-2.02,1.5-2.93,2.37-.88.84-1.63,1.83-2.21,2.94-.57,1.07-.85,2.4-.85,3.95,0,1.15.33,2.17,1,3.11.72,1,1.62,2,2.69,2.97,1.09.99,2.29,1.98,3.55,2.95,1.31,1,2.55,2.14,3.68,3.38,1.15,1.26,2.12,2.67,2.89,4.19.79,1.57,1.2,3.38,1.2,5.4,0,1.67-.29,3.17-.86,4.47-.57,1.3-1.36,2.41-2.34,3.31-.99.89-2.18,1.58-3.54,2.03-1.35.45-2.84.68-4.45.68Zm-13.15-21.23c.68,0,1.34.19,1.98.58.59.36,1.13.81,1.6,1.35.47.55.86,1.15,1.14,1.81.29.68.44,1.33.44,1.93,0,.7-.09,1.39-.28,2.04-.17.6-.36,1.22-.55,1.84-.19.62-.37,1.22-.54,1.81-.15.54-.23,1.1-.23,1.68v.19c.04,1.14.34,2.11.94,2.95.61.86,1.37,1.56,2.26,2.09.92.54,1.96.95,3.08,1.21,2.72.63,5.25.49,7.33-.21,1.19-.4,2.22-.99,3.06-1.75.84-.77,1.52-1.73,2.02-2.85.49-1.13.75-2.45.75-3.93,0-1.81-.35-3.42-1.05-4.8-.72-1.42-1.62-2.73-2.69-3.89-1.08-1.18-2.26-2.27-3.51-3.22-1.29-.99-2.51-2.01-3.63-3.02-1.14-1.03-2.11-2.1-2.89-3.19-.83-1.16-1.25-2.47-1.25-3.89,0-1.77.34-3.31,1.01-4.58.65-1.23,1.48-2.34,2.47-3.28.96-.92,2-1.76,3.1-2.51,1.04-.71,2.04-1.47,2.95-2.26.89-.77,1.63-1.61,2.22-2.52.55-.85.82-1.9.82-3.13,0-.86-.15-1.68-.44-2.46-.29-.77-.71-1.45-1.24-2.02-.54-.57-1.17-1.03-1.87-1.36-.7-.32-1.5-.48-2.38-.48-1.29,0-2.28.33-3.01,1.01-.78.73-1.43,1.66-1.93,2.79-.52,1.18-.96,2.46-1.31,3.81-.37,1.41-.81,2.75-1.31,3.99-.52,1.3-1.21,2.38-2.03,3.23-.9.92-2.14,1.39-3.69,1.39-1.1,0-2.05-.47-2.83-1.4-.68-.81-1.31-1.83-1.89-3.03-.56-1.16-1.12-2.44-1.66-3.8-.52-1.31-1.13-2.54-1.81-3.65-.66-1.08-1.46-1.99-2.38-2.71-.87-.68-1.91-1.01-3.18-1.01-.97,0-1.96.22-2.94.65-.99.44-1.88,1.04-2.66,1.79-.78.76-1.41,1.62-1.89,2.55-.46.9-.7,1.87-.7,2.87,0,1.23.34,2.25,1.04,3.14.75.95,1.68,1.82,2.78,2.59,1.13.79,2.38,1.55,3.74,2.26,1.4.73,2.7,1.49,3.87,2.24,1.19.77,2.22,1.62,3.05,2.51.91.98,1.37,2.15,1.37,3.47s-.47,2.67-1.41,3.95c-.88,1.21-1.99,2.42-3.3,3.6-1.29,1.16-2.71,2.35-4.24,3.56-1.49,1.17-2.88,2.4-4.15,3.64-1.24,1.22-2.29,2.49-3.11,3.77-.78,1.21-1.18,2.51-1.18,3.87v.19c.04,1.22.38,2.36,1.02,3.36.66,1.03,1.5,1.92,2.51,2.63,1.03.72,2.18,1.29,3.44,1.67,1.26.38,2.49.58,3.65.58.76,0,1.6-.1,2.52-.3.9-.2,1.75-.51,2.53-.9.75-.38,1.37-.89,1.87-1.49.45-.55.67-1.2.68-2l-.06-.34c0-.82-.16-1.72-.48-2.67l-.46-1.56c-.14-.55-.26-1.08-.37-1.59-.12-.55-.17-1.14-.17-1.74,0-.66.13-1.41.38-2.22.25-.81.61-1.56,1.08-2.26.46-.7,1.02-1.3,1.65-1.79.7-.54,1.47-.81,2.3-.81Z"/>
      <path class="cls-1" d="m54.25,37.47v-9.34c0-1.9-.65-2.84-1.94-2.84-.33,0-.58.04-.76.11-.41.11-.74.16-.99.16-.33,0-.61-.12-.84-.38-.23-.25-.34-.56-.34-.93,0-.92.54-1.38,1.61-1.38.13,0,.32.01.58.04l2.65.27c1,.1,2.11.15,3.34.15.67,0,2.1-.04,4.3-.12l4.42-.19c.59-.02,1.28-.04,2.08-.08.36-.05.74-.08,1.15-.08,1.36,0,2.04.6,2.04,1.81,0,.46-.06,1.17-.19,2.11-.13.95-.19,1.67-.19,2.15,0,.41.03.92.08,1.54.05.61.08,1.18.08,1.69,0,1.05-.46,1.58-1.38,1.58s-1.42-.6-1.42-1.8c0-.36.01-.9.04-1.64.03-.74.04-1.29.04-1.64,0-1.35-.38-2.21-1.15-2.56-.77-.36-2.58-.54-5.44-.54-2.43,0-3.81.22-4.14.65-.26.33-.38,1.51-.38,3.54v2.84c0,.72.1,1.16.29,1.33.19.17.72.25,1.59.25h1.27c1.67,0,2.5-.61,2.5-1.84,0-.28-.03-.67-.1-1.15-.06-.49-.1-.86-.1-1.11,0-.97.46-1.46,1.38-1.46.87,0,1.31.57,1.31,1.7,0,.15-.03.46-.09.92l-.27,2.08c-.12.92-.18,1.62-.18,2.08,0,1.05.13,2.39.4,4.01.09.54.13,1.05.13,1.54,0,1-.46,1.5-1.38,1.5-.87,0-1.31-.54-1.31-1.61,0-.26.02-.64.06-1.15.04-.51.06-.9.06-1.15,0-.79-.22-1.31-.65-1.54-.28-.18-.87-.27-1.77-.27h-1.19c-.9,0-1.45.1-1.65.3-.21.2-.31.76-.31,1.67v4.52c0,1.19.13,1.99.4,2.41.27.42.77.63,1.52.63h1.69c1.18,0,1.77.44,1.77,1.31,0,.36-.13.67-.4.92-.27.26-.6.38-.98.38-.41,0-1.01-.06-1.81-.19-1.13-.18-2.41-.27-3.84-.27-.92,0-1.91.08-2.96.23l-1.31.19c-.08,0-.17.01-.27.04h-.23c-1.13,0-1.69-.46-1.69-1.38,0-.82.4-1.23,1.19-1.23.1,0,.44.03,1,.08.28.08.55.12.81.12.69,0,1.17-.21,1.44-.63.27-.42.42-1.17.44-2.25v-6.07Z"/>
      <path class="cls-1" d="m86.11,43.58c0,1.92.65,2.88,1.96,2.88.2,0,.51-.03.92-.08.41-.05.72-.08.92-.08.33,0,.62.12.86.36.24.24.36.52.36.85,0,.88-.58,1.33-1.73,1.33h-.23c-.13-.03-.22-.04-.27-.04l-1.88-.27c-.72-.1-1.52-.15-2.42-.15-.97,0-1.83.05-2.57.15l-1.92.27c-.08,0-.17.01-.27.04h-.27c-1.13,0-1.69-.44-1.69-1.33,0-.81.41-1.21,1.23-1.21.2,0,.51.03.92.08.41.05.72.08.92.08,1.28,0,1.92-.96,1.92-2.88v-15.6c0-1.82-.94-2.73-2.81-2.73h-1.19c-1.84,0-2.77.9-2.77,2.69,0,.64.01,1.08.04,1.31l.15,1.42c.03.23.04.55.04.96,0,1.61-.5,2.42-1.5,2.42s-1.42-.59-1.42-1.77c0-.33.04-.91.12-1.73.05-1.23.08-2.01.08-2.34,0-.64-.02-1.31-.06-2-.09-1.36-.13-1.93-.13-1.73,0-1.08.49-1.61,1.46-1.61.36,0,1.19.04,2.49.12.13,0,1.18.05,3.15.15h4.37c.51,0,1.88-.02,4.11-.07.49,0,1.32-.03,2.49-.1,1.05-.07,1.87-.1,2.46-.1,1.28,0,1.92.53,1.92,1.58v.08c0,.26-.03.73-.1,1.42-.06.69-.13,1.44-.21,2.23v.42c0,.38.04.99.12,1.81.1,1.08.15,1.74.15,2,0,1.05-.5,1.58-1.5,1.58s-1.46-.64-1.46-1.93c0-.46.04-1.15.12-2.07.08-.91.12-1.6.12-2.07,0-1.78-1.01-2.66-3.04-2.66h-1.08c-.95,0-1.63.2-2.04.6-.41.4-.64,1.06-.69,1.98l-.15,2.69v13.07Z"/>
    </g>
  </g>
</svg>