<?xml version="1.0" encoding="UTF-8"?>
<svg id="Layer_2" data-name="Layer 2" xmlns="http://www.w3.org/2000/svg" viewBox="0 0 28.01 28">
  <defs>
    <style>
      .cls-1 {
        stroke-width: 0px;
      }
    </style>
  </defs>
  <g id="Layer_1-2" data-name="Layer 1">
    <path class="cls-1" d="m14.02,28C6.34,28.03.02,21.8,0,14.03-.02,6.33,6.21,0,13.99,0c7.75,0,14.02,6.26,14.02,14,0,7.78-6.33,14.01-13.99,14Zm3.54-1.56c.1-.02.2-.03.29-.06,3.09-1,5.49-2.88,7.21-5.62.11-.18.21-.36.32-.55-.64-.39-1.29-.71-1.95-1.02-.04.09-.06.15-.09.21-1.13,2.92-3.01,5.24-5.64,6.93-.05.03-.09.08-.13.12,0,0-.02,0-.02,0,0,0,0,0,0,.01,0,0,.02-.02.03-.02Zm-7.07,0s.02.02.03.03c-.01,0-.03-.01-.04-.02-.06-.04-.11-.09-.17-.13-.57-.37-1.11-.77-1.63-1.21-1.79-1.54-3.1-3.41-3.96-5.61-.04-.1-.08-.2-.12-.3-.69.32-1.33.64-1.97,1.03.07.12.12.22.17.31.42.7.88,1.36,1.42,1.98,1.63,1.85,3.61,3.15,5.96,3.88.09.03.19.03.29.05ZM17.61,1.59s0-.02,0-.02c0,0-.01,0-.02,0,0,0,.02.02.03.02.05.04.09.08.14.12,2.63,1.72,4.5,4.05,5.62,6.99.03.07.06.13.09.19.36-.1,1.69-.8,1.94-1.02-.01-.03-.03-.06-.05-.1-.86-1.56-2-2.9-3.41-3.99-1.23-.96-2.59-1.67-4.08-2.14-.08-.03-.18-.03-.26-.05Zm-5.59,24.47s.01,0,.02,0h-.02c-.03-.07-.06-.15-.1-.21-1.77-2.33-2.96-4.92-3.57-7.78-.01-.07-.05-.13-.07-.19-1.02.25-2.42.73-2.68.93.01.04.03.08.04.12,1,2.59,2.64,4.68,4.92,6.26.47.32.94.63,1.46.86Zm-7.74-7.88c-.77-2.74-.78-5.49-.04-8.23-.72-.37-1.42-.72-2.13-1.09-.96,2.21-1.24,4.49-.97,6.86.12,1.02.72,3.13,1.05,3.53.69-.35,1.38-.71,2.08-1.07Zm21.56,1.06c1.53-3.27,1.43-7.43.03-10.38-.69.36-1.39.71-2.09,1.08.36,1.35.55,2.72.54,4.12,0,1.4-.2,2.76-.58,4.11.7.36,1.39.71,2.09,1.07ZM13.48,1.85c-1.45,1.68-2.54,3.5-3.31,5.52-.39,1.01-.69,2.05-.88,3.12,1.03.29,3.62.58,4.18.46V1.85Zm1.06,9.13c1.43-.02,2.8-.19,4.2-.5-.64-3.26-2.03-6.11-4.2-8.64v9.14Zm-1.06,6.15c-1.41.03-2.78.19-4.17.49.65,3.2,2.03,6.01,4.17,8.51v-9Zm1.06,9c2.14-2.5,3.52-5.31,4.17-8.51-1.39-.3-2.77-.46-4.17-.49v9Zm-6.44-9.32c-.27-1.85-.27-3.69-.02-5.51-.97-.32-1.92-.62-2.88-.94-.46,1.73-.58,3.47-.38,5.24.08.73.21,1.45.42,2.14.97-.32,1.9-.62,2.86-.93Zm14.68.93c.65-2.46.66-4.92.03-7.39-.98.32-1.93.63-2.88.94.25,1.84.24,3.68-.02,5.51.95.31,1.89.62,2.87.93Zm-13.64-1.14c1.45-.3,2.88-.46,4.33-.5.05-1,.03-3.89-.03-4.09-1.45-.04-2.88-.2-4.32-.5-.23,1.71-.23,3.39.02,5.09Zm9.75-.02c.22-1.69.24-3.37,0-5.07-1.45.3-2.9.47-4.35.51-.05.45-.03,3.87.02,4.07.72.05,1.44.09,2.15.17.71.08,1.42.21,2.17.33Zm-2.89-14.65c1.9,2.48,3.15,5.24,3.76,8.31.94-.24,1.84-.55,2.73-.91-.6-1.69-1.49-3.19-2.68-4.5-1.09-1.2-2.36-2.17-3.81-2.9Zm-10.48,7.41c.91.36,1.81.67,2.73.91.13-.53.24-1.03.38-1.52.14-.49.3-.98.47-1.46.18-.48.37-.96.58-1.42.21-.46.44-.92.69-1.37.25-.45.52-.88.8-1.31.27-.42.57-.82.86-1.23-3.12,1.62-5.29,4.08-6.51,7.4Zm10.47,16.72c1.78-.9,3.28-2.13,4.49-3.7.84-1.09,1.5-2.28,1.97-3.59-.89-.37-1.78-.66-2.72-.9-.63,3.03-1.87,5.75-3.75,8.19ZM10.46,1.56c-1.8.5-3.4,1.36-4.82,2.56-1.25,1.06-2.26,2.32-3.05,3.76.43.3,1.62.91,1.98,1.02,1.14-3.1,3.09-5.55,5.89-7.33Z"/>
  </g>
</svg>