<?xml version="1.0" encoding="UTF-8"?>
<svg id="Layer_2" data-name="Layer 2" xmlns="http://www.w3.org/2000/svg" viewBox="0 0 28 28">
  <defs>
    <style>
      .cls-1 {
        stroke-width: 0px;
      }
    </style>
  </defs>
  <g id="Layer_1-2" data-name="Layer 1">
    <path class="cls-1" d="m13.49,0c.34,0,.69,0,1.03,0,.05,0,.1.02.15.02.98.04,1.95.19,2.9.44,2.79.75,5.13,2.21,7.02,4.39,1.91,2.21,3.01,4.78,3.33,7.68.03.32.06.63.08.95v1.06c0,.06-.02.12-.02.18-.04.82-.15,1.63-.34,2.43-.77,3.23-2.47,5.87-5.08,7.92-2.08,1.63-4.44,2.57-7.07,2.84-.29.03-.58.06-.87.08h-1.43c-.06,0-.11-.02-.17-.02-1.24-.07-2.45-.29-3.61-.71-2.78-1.01-5.06-2.7-6.79-5.1C1.19,20.16.34,17.93.08,15.48.05,15.2.03,14.91,0,14.63c0-.42,0-.84,0-1.26,0-.07.02-.14.03-.21.07-1.14.26-2.26.61-3.35.98-3.06,2.79-5.51,5.43-7.35C8.02,1.12,10.19.33,12.55.08,12.86.05,13.17.03,13.49,0Zm10.44,22.24c3.98-4.64,4.25-12.33-.85-17.41C17.97-.27,9.64-.15,4.64,5.11-.25,10.25.22,17.79,4.08,22.25c.13-.22.25-.45.38-.67,1-1.68,2.33-3.02,4.05-3.97,1.41-.78,2.92-1.25,4.52-1.41.11-.01.23-.03.34-.05-3.28-.48-5.17-3.3-4.91-6.07.26-2.84,2.61-5,5.5-5.04,2.82-.04,5.22,2.08,5.55,4.92.34,2.94-1.69,5.73-4.85,6.21,4.17.38,7.24,2.43,9.27,6.07Z"/>
  </g>
</svg>