<?xml version="1.0" encoding="UTF-8"?>
<svg id="Layer_2" data-name="Layer 2" xmlns="http://www.w3.org/2000/svg" viewBox="0 0 20.96 12.98">
  <defs>
    <style>
      .cls-1 {
        opacity: .5;
      }

      .cls-2 {
        stroke-width: 0px;
      }
    </style>
  </defs>
  <g id="Layer_1-2" data-name="Layer 1">
    <g class="cls-1">
      <path class="cls-2" d="m10.49,7.63c.31-.31.61-.62.91-.92,2.14-2.14,4.28-4.28,6.43-6.43.37-.37.87-.37,1.24,0,.54.54,1.08,1.08,1.62,1.62.37.37.36.87-.02,1.25-2.9,2.9-5.8,5.8-8.71,8.7-.28.28-.56.56-.84.84-.39.39-.88.39-1.27,0C6.8,9.64,3.75,6.6.7,3.55c-.15-.15-.29-.29-.44-.44-.35-.35-.36-.85,0-1.21C.81,1.35,1.36.8,1.92.25c.35-.35.86-.34,1.21.01,1.59,1.59,3.19,3.18,4.78,4.78.83.83,1.65,1.65,2.48,2.48.03.03.06.05.11.1Z"/>
    </g>
  </g>
</svg>