<?xml version="1.0" encoding="UTF-8"?>
<svg id="Layer_2" data-name="Layer 2" xmlns="http://www.w3.org/2000/svg" viewBox="0 0 81.2 81.2">
  <defs>
    <style>
      .cls-1, .cls-2 {
        stroke-width: 0px;
      }

      .cls-2 {
        fill: #fff;
      }

      .cls-3 {
        fill: none;
        stroke: #000;
        stroke-miterlimit: 10;
        stroke-width: 2px;
      }
    </style>
  </defs>
  <g id="Layer_1-2" data-name="Layer 1">
    <g>
      <path class="cls-1" d="m20.96,64.63c-.34-4.7.33-9.15,2.85-13.19,2.35-3.76,5.59-6.45,9.74-8.03.14-.05.34-.04.48.02,4.37,1.95,8.75,1.96,13.12,0,.22-.1.4-.09.61,0,6.92,2.88,11.02,8.03,12.33,15.4.34,1.91.2,3.85.22,5.81H20.96Z"/>
      <path class="cls-1" d="m53.35,29.31c.02,7-5.69,12.72-12.72,12.74-7.03.02-12.76-5.68-12.77-12.71-.01-7.04,5.69-12.76,12.72-12.76,7.07,0,12.76,5.67,12.77,12.74Z"/>
    </g>
    <circle class="cls-3" cx="40.6" cy="40.6" r="39.6"/>
    <g>
      <circle class="cls-2" cx="54.22" cy="61.1" r="11.51"/>
      <path class="cls-1" d="m54.94,69.75v1.92h-1.53v-1.89c-.73-.17-1.44-.27-2.1-.49-1.48-.49-2.67-1.34-3.3-2.83-.25-.58-.37-1.19-.38-1.84h4.36c.12.84.48,1.52,1.39,1.82v-3.79c-.37-.1-.76-.21-1.15-.33-.59-.19-1.2-.36-1.77-.6-1.52-.66-2.6-1.71-2.81-3.44-.23-1.85.28-3.41,1.84-4.53,1.03-.75,2.2-1.11,3.45-1.25.15-.02.3-.03.46-.05v-1.91h1.55v1.85c.75.18,1.48.28,2.17.52,2.05.7,3.2,2.16,3.45,4.32,0,.07,0,.14,0,.23h-4.37c-.14-.73-.42-1.38-1.24-1.65,0,1.2,0,2.37.01,3.55,0,.08.15.21.26.24.84.28,1.69.52,2.52.81.38.13.75.32,1.1.53,2.88,1.76,2.51,6.01-.19,7.71-.96.6-2,.94-3.12,1.05-.18.02-.36.03-.59.05Zm.03-6.59v3.35c.91-.15,1.5-.76,1.54-1.58.04-.86-.53-1.52-1.54-1.77Zm-1.58-7.47c-.91.15-1.4.67-1.42,1.51-.03.81.58,1.57,1.42,1.76v-3.27Z"/>
    </g>
  </g>
</svg>