<?xml version="1.0" encoding="UTF-8"?>
<svg id="Layer_2" data-name="Layer 2" xmlns="http://www.w3.org/2000/svg" viewBox="0 0 81.2 81.2">
  <defs>
    <style>
      .cls-1 {
        stroke-width: 0px;
      }

      .cls-2 {
        fill: none;
        stroke: #000;
        stroke-miterlimit: 10;
        stroke-width: 2px;
      }
    </style>
  </defs>
  <g id="Layer_1-2" data-name="Layer 1">
    <g>
      <path class="cls-1" d="m20.96,64.63c-.34-4.7.33-9.15,2.85-13.19,2.35-3.76,5.59-6.45,9.74-8.03.14-.05.34-.04.48.02,4.37,1.95,8.75,1.96,13.12,0,.22-.1.4-.09.61,0,6.92,2.88,11.02,8.03,12.33,15.4.34,1.91.2,3.85.22,5.81H20.96Z"/>
      <path class="cls-1" d="m53.35,29.31c.02,7-5.69,12.72-12.72,12.74-7.03.02-12.76-5.68-12.77-12.71-.01-7.04,5.69-12.76,12.72-12.76,7.07,0,12.76,5.67,12.77,12.74Z"/>
    </g>
    <circle class="cls-2" cx="40.6" cy="40.6" r="39.6"/>
  </g>
</svg>