<?xml version="1.0" encoding="UTF-8"?>
<svg id="Layer_2" data-name="Layer 2" xmlns="http://www.w3.org/2000/svg" viewBox="0 0 81.2 81.2">
  <defs>
    <style>
      .cls-1 {
        stroke-width: 0px;
      }

      .cls-2 {
        fill: none;
        stroke: #000;
        stroke-miterlimit: 10;
        stroke-width: 2px;
      }
    </style>
  </defs>
  <g id="Layer_1-2" data-name="Layer 1">
    <circle class="cls-2" cx="40.6" cy="40.6" r="39.6"/>
    <g>
      <path class="cls-1" d="m57.93,30.04c0,.73,0,1.3,0,1.86,0,9.67,0,19.34,0,29.01,0,2.04-.3,2.33-2.36,2.33-9.55,0-19.09,0-28.64,0-1.84,0-2.2-.37-2.2-2.25,0-9.71,0-19.42,0-29.13,0-.56,0-1.13,0-1.81-2.84,0-5.54,0-8.24,0-2.34,0-2.59-.25-2.59-2.63,0-2.21-.01-4.43,0-6.64.01-1.64.41-2.04,2.04-2.04,6.1-.03,12.21-.06,18.31-.06.98,0,1.57.46,1.67,1.55.29,3.23,2.48,5.32,5.47,5.31,2.88-.02,5.03-2.14,5.33-5.33.1-1.09.71-1.53,1.69-1.52,6.1,0,12.21.03,18.31.06,1.56,0,2,.42,2.01,1.95.02,2.42.03,4.84,0,7.25-.01,1.71-.42,2.11-2.12,2.11-2.82.01-5.65,0-8.7,0Zm-41.09-2.87c2.91,0,5.7,0,8.48,0,2.03,0,2.28.25,2.28,2.25,0,9.8,0,19.59,0,29.39,0,.48,0,.96,0,1.47h27.46c0-.53,0-.98,0-1.42,0-9.55,0-19.1,0-28.65q0-3.04,3.09-3.04c2.53,0,5.06,0,7.64,0v-5.48h-16.22c-1.07,4.03-4.08,6.58-7.53,6.78-4.21.24-7.81-2.21-8.99-6.79h-16.21v5.49Z"/>
      <path class="cls-1" d="m33.35,35.81c-.69,0-1.44.16-2.06-.05-.51-.17-1.08-.71-1.25-1.22-.25-.73.22-1.46,1.01-1.52,1.58-.1,3.18-.13,4.74.04.41.04,1.07.95,1.01,1.38-.08.51-.73,1.13-1.27,1.31-.66.23-1.45.05-2.18.05Z"/>
    </g>
  </g>
</svg>