<?xml version="1.0" encoding="UTF-8"?>
<svg id="Layer_2" data-name="Layer 2" xmlns="http://www.w3.org/2000/svg" viewBox="0 0 24.91 31.62">
  <defs>
    <style>
      .cls-1 {
        stroke-width: 0px;
      }
    </style>
  </defs>
  <g id="Layer_1-2" data-name="Layer 1">
    <path class="cls-1" d="m3.48,6.94c.47,0,.94,0,1.41,0,.33,0,.33,0,.35-.35.06-.92.15-1.83.4-2.73.23-.81.54-1.58,1.03-2.26C7.57.33,8.81-.18,10.34.06c1,.16,1.71.73,2.14,1.64.31.65.49,1.34.54,2.05.06.95.07,1.91.1,2.86.01.37,0,.38.36.38.83,0,1.67.01,2.5,0,.32,0,.34-.02.35-.31.07-1.29-.02-2.57-.51-3.79-.11-.27-.25-.54-.42-.78-.56-.83-1.36-1.17-2.34-.99-.25.05-.39.02-.51-.2-.04-.08-.1-.14-.16-.21-.29-.36-.29-.37.18-.49,1.56-.39,2.97.2,3.78,1.59.45.76.72,1.59.81,2.46.08.79.08,1.59.11,2.39.01.32,0,.32.31.33.83.04,1.66.08,2.49.13.42.03.42.04.42.46.05,2.85.09,5.7.14,8.55.03,2.12.07,4.24.11,6.36.03,1.53.05,3.06.09,4.59,0,.29-.06.54-.23.78-.39.58-.76,1.16-1.14,1.75-.06.09-.12.17-.16.27-.02.05.01.12.02.18.06-.02.14-.02.18-.06.09-.08.16-.19.23-.28.39-.51.78-1.02,1.17-1.53.24-.31.24-.31.58-.14.62.32,1.24.64,1.85.95.09.05.19.08.29.11.02,0,.07-.02.08-.05.01-.02.02-.08,0-.09-.08-.07-.15-.14-.24-.19-.62-.39-1.23-.78-1.86-1.16-.22-.13-.3-.29-.3-.54-.03-2.1-.07-4.2-.1-6.31-.04-2.19-.08-4.38-.11-6.57-.03-1.89-.06-3.79-.1-5.68,0-.35-.02-.69-.05-1.04-.02-.24.05-.39.31-.45.57-.15,1.13-.33,1.7-.5.16-.05.23,0,.24.17.03.43.07.87.1,1.3.12,1.68.23,3.36.35,5.04.15,2.11.32,4.22.48,6.34.08,1.11.15,2.22.24,3.33.13,1.75.26,3.5.39,5.25.04.55.08,1.11.12,1.66.02.38.02.39-.35.49-1.29.34-2.58.68-3.88,1.01-.59.15-1.17.31-1.76.45-.18.04-.38.07-.56.05-1.61-.15-3.21-.31-4.82-.47-1.26-.12-2.52-.23-3.79-.35-1.69-.16-3.39-.33-5.08-.49-1.31-.12-2.63-.24-3.94-.36-.88-.08-.72-.05-.66-.78.09-1.09.16-2.18.24-3.27.17-2.22.34-4.43.5-6.65.08-1.07.15-2.15.23-3.22.13-1.7.26-3.39.39-5.09.09-1.19.17-2.39.25-3.59.03-.42.03-.43.45-.43.45,0,.9,0,1.36,0h0Zm14.77,12.36s-.01,0-.02,0c.03-1.7.06-3.4.08-5.11.02-1.89.03-3.79.05-5.68,0-.12.02-.25,0-.36-.02-.07-.11-.15-.19-.18-.07-.03-.17,0-.26,0-1.44,0-2.88,0-4.33,0-.09,0-.17,0-.26,0-.16,0-.21.08-.21.23,0,.07,0,.14,0,.21-.01.2.03.33.28.3.25-.04.48.05.68.22.42.35.56,1,.33,1.52-.18.39-.46.65-.91.67-.43.02-.72-.22-.93-.57-.1-.16-.22-.31-.3-.48-.1-.2-.23-.4-.27-.61-.06-.32-.08-.65-.09-.98-.02-.55.04-.51-.5-.52-1.53,0-3.06-.02-4.59-.02-.24,0-.28.04-.24.26.02.1.05.2.09.3.13.27.23.32.52.2.3-.12.58-.09.84.08.69.43.74,1.58.08,2.07-.31.23-.64.26-.98.1-.28-.13-.48-.36-.55-.66-.07-.27-.21-.45-.44-.61-.39-.29-.64-.68-.72-1.16-.02-.12-.06-.24-.08-.36-.02-.17-.1-.24-.27-.24-.73,0-1.46,0-2.19,0-.19,0-.28.06-.29.27-.03.57-.08,1.14-.12,1.71-.13,1.73-.26,3.46-.39,5.19-.08,1.06-.15,2.11-.23,3.17-.13,1.7-.26,3.39-.39,5.09-.09,1.19-.19,2.39-.28,3.58-.05.61-.08,1.21-.13,1.82-.02.21.03.31.27.33.64.05,1.28.12,1.92.18,1.28.12,2.56.23,3.84.35,1.38.13,2.76.26,4.15.4.85.08,1.69.16,2.54.24,1.3.12,2.59.25,3.89.37.52.05.49.04.49-.45.04-3.61.08-7.23.12-10.84Zm-6.3-13.45s.02,0,.03,0c-.03-.59-.05-1.18-.1-1.77-.06-.64-.19-1.27-.5-1.85-.39-.71-.98-1.05-1.79-1.04-.6,0-1.14.21-1.54.65-.31.34-.6.73-.81,1.14-.56,1.14-.77,2.37-.79,3.63,0,.31,0,.32.32.33.85,0,1.7,0,2.55,0,.33,0,.33-.01.35-.36.04-.55.07-1.11.12-1.66.09-.81.23-1.62.51-2.39.05-.15.11-.29.19-.43.02-.03.12-.06.15-.04.32.21.55.84.45,1.19-.3,1.01-.39,2.04-.46,3.08-.04.61-.03.61.57.61.1,0,.21.02.31.02.38,0,.41-.01.43-.41.01-.24,0-.49,0-.73Z"/>
  </g>
</svg>